<svg width="31" height="31" viewBox="0 0 31 31" fill="none" xmlns="http://www.w3.org/2000/svg">
<path d="M14.2103 15.4992V22.1273L12.3435 20.8828L10.9105 23.0322L14.7855 25.6156C15.2194 25.9048 15.7846 25.9048 16.2185 25.6156L20.0935 23.0322L18.6605 20.8828L16.7936 22.1273V15.4992H14.2103Z" fill="black"/>
<path fill-rule="evenodd" clip-rule="evenodd" d="M15.9081 1.29075C16.8773 1.28911 17.7383 1.28766 18.5163 1.64548C19.2943 2.0033 19.8535 2.65796 20.4831 3.39494L20.6125 3.54627L25.6765 9.45403C26.189 10.0502 26.6434 10.5789 26.8863 11.2355C27.1292 11.8921 27.1282 12.5893 27.1271 13.3755L27.127 23.3343C27.127 24.4794 27.1271 25.466 27.0209 26.256C26.907 27.1027 26.6503 27.9144 25.992 28.5727C25.3337 29.231 24.5221 29.4877 23.6754 29.6015C22.8853 29.7078 21.8987 29.7077 20.7536 29.7076H10.2503C9.10524 29.7077 8.11863 29.7078 7.32856 29.6015C6.48185 29.4877 5.67023 29.231 5.01192 28.5727C4.35361 27.9144 4.09689 27.1027 3.98306 26.256C3.87684 25.466 3.87689 24.4794 3.87696 23.3343V7.66427C3.87689 6.51923 3.87684 5.53263 3.98306 4.74257C4.09689 3.89586 4.35361 3.08424 5.01192 2.42593C5.67023 1.76762 6.48185 1.5109 7.32856 1.39707C8.11862 1.29085 9.10522 1.2909 10.2503 1.29097L15.709 1.29097L15.9081 1.29075ZM10.3353 3.8743H15.502L15.502 9.75695C15.5019 10.3047 15.5018 10.837 15.5608 11.2761C15.6273 11.7711 15.7895 12.3359 16.2586 12.805C16.7278 13.2742 17.2926 13.4363 17.7876 13.5029C18.2266 13.5619 18.7589 13.5618 19.3067 13.5617L24.5436 13.5617V23.2493C24.5436 24.5036 24.5409 25.3144 24.4606 25.9118C24.3852 26.4721 24.2636 26.6477 24.1653 26.746C24.067 26.8443 23.8914 26.9659 23.3311 27.0412C22.7337 27.1216 21.9229 27.1243 20.6686 27.1243H10.3353C9.08098 27.1243 8.27019 27.1216 7.67279 27.0412C7.11254 26.9659 6.93694 26.8443 6.83861 26.746C6.74029 26.6477 6.61868 26.4721 6.54336 25.9118C6.46304 25.3144 6.46029 24.5036 6.46029 23.2493V7.7493C6.46029 6.49499 6.46304 5.6842 6.54336 5.08679C6.61868 4.52655 6.74029 4.35095 6.83861 4.25262C6.93694 4.15429 7.11254 4.03269 7.67279 3.95736C8.27019 3.87704 9.08098 3.8743 10.3353 3.8743ZM18.6511 5.22749L23.5804 10.9783H19.377C18.7316 10.9783 18.3774 10.9756 18.1318 10.9426L18.1224 10.9413L18.1211 10.9319C18.0881 10.6862 18.0853 10.3321 18.0853 9.68668V4.5787C18.2318 4.74173 18.4154 4.95254 18.6511 5.22749Z" fill="black"/>
</svg>
