<svg width="34" height="34" viewBox="0 0 34 34" fill="none" xmlns="http://www.w3.org/2000/svg">
<g clip-path="url(#clip0_2156_829)">
<path fill-rule="evenodd" clip-rule="evenodd" d="M15.1146 3.79996C15.5866 3.32859 16.2181 3.05123 16.8846 3.0226C17.551 2.99397 18.204 3.21615 18.7146 3.6453L18.8853 3.8013L21.4186 6.3333H25C25.6725 6.33342 26.3202 6.58766 26.8132 7.04508C27.3062 7.5025 27.6082 8.12932 27.6586 8.79996L27.6666 8.99996V12.5813L30.2 15.1146C30.6717 15.5867 30.9493 16.2185 30.9779 16.8852C31.0066 17.552 30.7842 18.2052 30.3546 18.716L30.1986 18.8853L27.6653 21.4186V25C27.6655 25.6727 27.4114 26.3207 26.954 26.814C26.4965 27.3073 25.8695 27.6095 25.1986 27.66L25 27.6666H21.42L18.8866 30.2C18.4146 30.6717 17.7828 30.9493 17.116 30.9779C16.4493 31.0066 15.7961 30.7842 15.2853 30.3546L15.116 30.2L12.5826 27.6666H8.99996C8.32719 27.6668 7.6792 27.4128 7.1859 26.9553C6.69259 26.4978 6.39042 25.8708 6.33996 25.2L6.33329 25V21.4186L3.79996 18.8853C3.32822 18.4132 3.05062 17.7815 3.02199 17.1147C2.99335 16.448 3.21576 15.7947 3.64529 15.284L3.79996 15.1146L6.33329 12.5813V8.99996C6.33342 8.32742 6.58766 7.67977 7.04508 7.18674C7.5025 6.69372 8.12932 6.39174 8.79996 6.3413L8.99996 6.3333H12.5813L15.1146 3.79996ZM21.1053 12.9773L15.4466 18.636L13.0893 16.2786C12.8391 16.0286 12.4998 15.8882 12.1462 15.8884C11.7925 15.8885 11.4533 16.0291 11.2033 16.2793C10.9533 16.5295 10.8129 16.8687 10.813 17.2224C10.8131 17.5761 10.9538 17.9153 11.204 18.1653L14.4093 21.3706C14.5455 21.5069 14.7072 21.615 14.8852 21.6887C15.0632 21.7625 15.254 21.8004 15.4466 21.8004C15.6393 21.8004 15.8301 21.7625 16.0081 21.6887C16.186 21.615 16.3478 21.5069 16.484 21.3706L22.9906 14.8626C23.2335 14.6112 23.3679 14.2744 23.3649 13.9248C23.3618 13.5752 23.2216 13.2407 22.9744 12.9935C22.7272 12.7463 22.3928 12.6061 22.0432 12.6031C21.6936 12.6 21.3568 12.7344 21.1053 12.9773Z" fill="black"/>
</g>
<defs>
<clipPath id="clip0_2156_829">
<rect width="34" height="34" fill="white"/>
</clipPath>
</defs>
</svg>
