<svg width="34" height="34" viewBox="0 0 34 34" fill="none" xmlns="http://www.w3.org/2000/svg">
<g clip-path="url(#clip0_2156_826)">
<path fill-rule="evenodd" clip-rule="evenodd" d="M13.9131 4.5503C14.3324 3.5728 15.4148 2.68597 16.7804 2.94947C18.8686 3.35038 21.0857 4.93422 21.2415 7.50263L21.25 7.79163V11.3333H24.6571C25.4637 11.3333 26.2611 11.5054 26.9958 11.8383C27.7306 12.1712 28.3858 12.6571 28.9177 13.2635C29.4495 13.8699 29.8458 14.5829 30.08 15.3548C30.3142 16.1267 30.3809 16.9397 30.2756 17.7395L30.2331 18.0143L28.9439 25.0976C28.7154 26.3557 28.068 27.4995 27.1071 28.3431C26.1463 29.1867 24.9283 29.6805 23.6513 29.7443L23.3693 29.75H8.5C7.41595 29.75 6.37285 29.3358 5.58413 28.5921C4.79541 27.8485 4.32068 26.8315 4.25708 25.7493L4.25 25.5V17C4.24994 15.9159 4.66413 14.8728 5.40782 14.0841C6.15151 13.2954 7.16849 12.8206 8.25067 12.7571L8.5 12.75H10.3983L13.9131 4.5503ZM9.91667 15.5833H8.5C8.12428 15.5833 7.76394 15.7326 7.49827 15.9982C7.23259 16.2639 7.08333 16.6242 7.08333 17V25.5C7.08333 25.8757 7.23259 26.236 7.49827 26.5017C7.76394 26.7674 8.12428 26.9166 8.5 26.9166H9.91667V15.5833ZM16.4688 5.77997L12.8648 14.1907C12.8144 14.3079 12.7801 14.4313 12.7628 14.5576L12.75 14.7475V26.9166H23.3693C23.994 26.9167 24.6012 26.7103 25.0964 26.3296C25.5917 25.9489 25.9472 25.4152 26.1078 24.8115L26.1573 24.5905L27.4465 17.5071C27.5177 17.1161 27.5059 16.7145 27.4118 16.3284C27.3177 15.9422 27.1434 15.5802 26.9002 15.2658C26.657 14.9515 26.3505 14.6918 26.0004 14.5036C25.6503 14.3154 25.2645 14.2031 24.8682 14.1737L24.6571 14.1666H21.25C20.5352 14.1669 19.8467 13.8969 19.3226 13.4108C18.7984 12.9248 18.4774 12.2586 18.4238 11.5458L18.4167 11.3333V7.79163C18.4167 7.00822 17.8018 6.21063 16.7096 5.8508L16.4688 5.77997Z" fill="white"/>
</g>
<defs>
<clipPath id="clip0_2156_826">
<rect width="34" height="34" fill="white"/>
</clipPath>
</defs>
</svg>
