<svg width="34" height="34" viewBox="0 0 34 34" fill="none" xmlns="http://www.w3.org/2000/svg">
<g clip-path="url(#clip0_2156_818)">
<path fill-rule="evenodd" clip-rule="evenodd" d="M24.0834 4.25C24.4825 4.24998 24.8771 4.33427 25.2413 4.49736C25.6056 4.66044 25.9313 4.89863 26.197 5.19633L26.35 5.38333L31.5974 12.3803C31.9682 12.8746 32.1672 13.4765 32.1641 14.0944C32.161 14.7123 31.956 15.3123 31.5804 15.8029L31.4274 15.9871L18.3105 30.4144C17.9975 30.7589 17.5614 30.9663 17.0966 30.9918C16.6319 31.0172 16.1758 30.8587 15.827 30.5504L15.6896 30.4144L2.57271 15.9857C2.15696 15.5283 1.90217 14.9475 1.84718 14.3319C1.79219 13.7163 1.94002 13.0996 2.26813 12.5758L2.40271 12.3803L7.65004 5.38333C7.88952 5.06393 8.19379 4.79874 8.54291 4.60513C8.89203 4.41153 9.27812 4.29389 9.67588 4.25992L9.91671 4.25H24.0834ZM20.5743 15.5833H13.4258L17 24.5182L20.5743 15.5833ZM27.965 15.5833H23.6258L20.2173 24.1046L27.965 15.5833ZM10.3743 15.5833H6.03646L13.7828 24.1046L10.3743 15.5833ZM17.5412 7.08333H16.4589L13.6255 12.75H20.3745L17.5412 7.08333ZM24.0834 7.08333H20.7089L23.5422 12.75H28.3334L24.0834 7.08333ZM13.2912 7.08333H9.91671L5.66671 12.75H10.4579L13.2912 7.08333Z" fill="black"/>
</g>
<defs>
<clipPath id="clip0_2156_818">
<rect width="34" height="34" fill="white"/>
</clipPath>
</defs>
</svg>
