<svg width="34" height="34" viewBox="0 0 34 34" fill="none" xmlns="http://www.w3.org/2000/svg">
<g clip-path="url(#clip0_2156_822)">
<path fill-rule="evenodd" clip-rule="evenodd" d="M17.0003 17C19.6536 17 22.0588 17.8778 23.821 19.1066C25.4976 20.2758 26.917 22.0123 26.917 23.8809C26.917 24.9071 26.4798 25.7566 25.79 26.3894C25.1411 26.9848 24.2938 27.3708 23.4211 27.6349C21.6767 28.1629 19.3808 28.3333 17.0003 28.3333C14.6199 28.3333 12.324 28.1629 10.5796 27.6349C9.70689 27.3708 8.85952 26.9848 8.21056 26.3894C7.52086 25.7566 7.08366 24.9071 7.08366 23.8809C7.08366 22.0123 8.50303 20.2758 10.1796 19.1066C11.9418 17.8778 14.3471 17 17.0003 17ZM17.0003 19.8333C14.9592 19.8333 13.1145 20.5142 11.8003 21.4306C10.4004 22.4068 9.91699 23.4025 9.91699 23.8809C9.91699 24.3113 10.4157 24.5811 10.8695 24.7508L11.1595 24.8498L11.4003 24.9231C12.7323 25.3262 14.6863 25.5 17.0003 25.5C19.1363 25.5 20.9656 25.3519 22.2821 25.0121L22.7124 24.8894L22.9823 24.8037C23.468 24.639 24.0837 24.3592 24.0837 23.8809C24.0837 23.4025 23.6003 22.4068 22.2003 21.4306C20.8862 20.5142 19.0415 19.8333 17.0003 19.8333ZM26.917 18.4167C28.3967 18.4167 29.7394 18.9047 30.7325 19.5973C31.64 20.2301 32.5837 21.2836 32.5837 22.5655C32.5837 24.4578 30.7465 25.1343 29.0946 25.3707L28.6692 25.4229L28.2602 25.4583C28.1939 25.4629 28.1285 25.467 28.0644 25.4705C28.2376 24.9821 28.3337 24.4504 28.3337 23.8809C28.3337 23.4481 28.2798 23.0282 28.1817 22.6233C28.7293 22.5814 29.1783 22.5096 29.5119 22.4085C29.659 22.364 29.5252 22.2251 29.3708 22.1046L29.2192 21.9943L29.1118 21.9214C28.7374 21.6603 28.2512 21.4411 27.7023 21.3295C27.1628 20.2529 26.336 19.3202 25.4549 18.5767C25.9205 18.4738 26.4107 18.4167 26.917 18.4167ZM7.08366 18.4167C7.5899 18.4167 8.08014 18.4738 8.54582 18.5767C7.66465 19.3202 6.83781 20.2529 6.29836 21.3295C5.74944 21.4411 5.26319 21.6603 4.8888 21.9214L4.70758 22.0464C4.52795 22.1762 4.31713 22.3566 4.48882 22.4085C4.82235 22.5096 5.27126 22.5814 5.81896 22.6233C5.7208 23.0282 5.66699 23.4481 5.66699 23.8809C5.66699 24.4504 5.76309 24.9821 5.93626 25.4705L5.53844 25.4425L5.12024 25.3991C3.41736 25.1908 1.41699 24.5401 1.41699 22.5655C1.41699 21.2836 2.36066 20.2301 3.26811 19.5973C4.26121 18.9047 5.60396 18.4167 7.08366 18.4167ZM26.2087 9.91667C28.1647 9.91667 29.7503 11.5023 29.7503 13.4583C29.7503 15.4143 28.1647 17 26.2087 17C24.2527 17 22.667 15.4143 22.667 13.4583C22.667 11.5023 24.2527 9.91667 26.2087 9.91667ZM7.79199 9.91667C9.748 9.91667 11.3337 11.5023 11.3337 13.4583C11.3337 15.4143 9.748 17 7.79199 17C5.83599 17 4.25033 15.4143 4.25033 13.4583C4.25033 11.5023 5.83599 9.91667 7.79199 9.91667ZM17.0003 4.25C20.1299 4.25 22.667 6.78705 22.667 9.91667C22.667 13.0463 20.1299 15.5833 17.0003 15.5833C13.8707 15.5833 11.3337 13.0463 11.3337 9.91667C11.3337 6.78705 13.8707 4.25 17.0003 4.25ZM26.2087 12.75C25.8175 12.75 25.5003 13.0671 25.5003 13.4583C25.5003 13.8495 25.8175 14.1667 26.2087 14.1667C26.5998 14.1667 26.917 13.8495 26.917 13.4583C26.917 13.0671 26.5998 12.75 26.2087 12.75ZM7.79199 12.75C7.40079 12.75 7.08366 13.0671 7.08366 13.4583C7.08366 13.8495 7.40079 14.1667 7.79199 14.1667C8.18319 14.1667 8.50033 13.8495 8.50033 13.4583C8.50033 13.0671 8.18319 12.75 7.79199 12.75ZM17.0003 7.08333C15.4355 7.08333 14.167 8.35186 14.167 9.91667C14.167 11.4815 15.4355 12.75 17.0003 12.75C18.5652 12.75 19.8337 11.4815 19.8337 9.91667C19.8337 8.35186 18.5652 7.08333 17.0003 7.08333Z" fill="white"/>
</g>
<defs>
<clipPath id="clip0_2156_822">
<rect width="34" height="34" fill="white"/>
</clipPath>
</defs>
</svg>
