<svg width="301" height="70" viewBox="0 0 301 70" fill="none" xmlns="http://www.w3.org/2000/svg">
<g clip-path="url(#clip0_2152_3633)">
<path d="M40.4261 25.7123C39.7732 25.0594 38.7177 25.0594 38.0649 25.7123C37.412 26.3652 37.412 27.4207 38.0649 28.0736C38.7177 28.7265 39.7732 28.7265 40.4261 28.0736C41.079 27.4207 41.079 26.3652 40.4261 25.7123Z" fill="#E1B413"/>
<path d="M44.1801 35.9032C44.833 36.5561 45.8885 36.5561 46.5414 35.9032C47.1943 35.2503 47.1943 34.1948 46.5414 33.5419C45.8885 32.889 44.833 32.889 44.1801 33.5419C43.5272 34.1948 43.5272 35.2557 44.1801 35.9032Z" fill="#E1B413"/>
<path d="M9.78942 37.1C9.48474 36.7953 9.07124 36.6104 8.60878 36.6104C7.6893 36.6104 6.93848 37.3612 6.93848 38.2807C6.93848 39.2001 7.68386 39.951 8.60878 39.951C9.52826 39.951 10.2791 39.2001 10.2791 38.2807C10.2791 37.8182 10.0887 37.4047 9.78942 37.1Z" fill="#E1B413"/>
<path d="M61.8842 34.4671C62.8036 34.4671 63.5545 33.7163 63.5545 32.7968C63.5545 32.3343 63.3641 31.9208 63.0648 31.6161C62.7601 31.3115 62.3466 31.1265 61.8842 31.1265C60.9647 31.1265 60.2139 31.8773 60.2139 32.7968C60.2139 33.7217 60.9647 34.4671 61.8842 34.4671Z" fill="#E1B413"/>
<path d="M22.9232 25.0164C23.8427 25.0164 24.5935 24.2656 24.5935 23.3461C24.5935 22.8836 24.4031 22.4701 24.1039 22.1654C23.7992 21.8608 23.3857 21.6758 22.9232 21.6758C22.0038 21.6758 21.2529 22.4266 21.2529 23.3461C21.2584 24.2656 22.0038 25.0164 22.9232 25.0164Z" fill="#E1B413"/>
<path d="M47.5648 46.0669C46.6454 46.0669 45.8945 46.8177 45.8945 47.7372C45.8945 48.6567 46.6454 49.4075 47.5648 49.4075C48.4843 49.4075 49.2351 48.6567 49.2351 47.7372C49.2351 47.2747 49.0447 46.8612 48.7455 46.5566C48.4408 46.2519 48.0273 46.0669 47.5648 46.0669Z" fill="#E1B413"/>
<path d="M33.9955 42.2636C33.3426 41.6107 32.2871 41.6107 31.6342 42.2636C30.9813 42.9165 30.9813 43.972 31.6342 44.6249C32.2871 45.2778 33.3426 45.2778 33.9955 44.6249C34.6484 43.9774 34.6484 42.9165 33.9955 42.2636Z" fill="#E1B413"/>
<path d="M25.8558 36.3392C26.5087 35.6863 26.5087 34.6308 25.8558 33.9779C25.2029 33.3251 24.1474 33.3251 23.4945 33.9779C22.8417 34.6308 22.8417 35.6863 23.4945 36.3392C24.1474 36.9921 25.2084 36.9921 25.8558 36.3392Z" fill="#E1B413"/>
<path d="M34.1478 52.8295C33.4949 52.1766 32.4394 52.1766 31.7865 52.8295C31.1337 53.4824 31.1337 54.5379 31.7865 55.1908C32.4394 55.8437 33.4949 55.8437 34.1478 55.1908C34.7953 54.5379 34.7953 53.4824 34.1478 52.8295Z" fill="#E1B413"/>
<path d="M37.9399 17.3832C38.5927 18.0361 39.6483 18.0361 40.3011 17.3832C40.954 16.7303 40.954 15.6748 40.3011 15.0219C39.6483 14.369 38.5927 14.369 37.9399 15.0219C37.287 15.6748 37.287 16.7303 37.9399 17.3832Z" fill="#E1B413"/>
<path d="M60.0181 28.8468L58.7776 27.6064L61.9223 24.4616L64.893 27.4323L63.5437 28.7816C63.005 28.553 62.4392 28.4333 61.8625 28.4333C61.2314 28.4333 60.6002 28.5748 60.0181 28.8468ZM59.893 29.701C60.4697 29.3419 61.1389 29.1243 61.8679 29.1243C62.5317 29.1243 63.1465 29.3147 63.6851 29.6194L65.8669 27.4377L61.9223 23.4932L57.8037 27.6118L59.893 29.701Z" fill="white"/>
<path d="M43.1841 24.9784C42.9719 24.5486 42.6944 24.1623 42.3571 23.8249C41.9055 23.3734 41.3669 23.0306 40.7684 22.8075V22.1655V20.3538C41.3125 20.1307 41.813 19.8043 42.2265 19.3908C43.9512 17.666 43.9512 14.8586 42.2265 13.1339C41.3941 12.3015 40.2842 11.839 39.0981 11.839C37.9174 11.839 36.8021 12.296 35.9697 13.1339C35.5072 13.5964 35.159 14.1513 34.9414 14.7661H25.518L21.6497 10.8978L29.6475 2.89991C31.073 1.47444 32.9718 0.690973 35.0012 0.690973C37.0306 0.690973 38.9349 1.47444 40.3549 2.89991L59.4899 22.0295L56.5411 24.9784H43.1841ZM42.7325 25.6639H56.8294L60.4693 22.0241L40.8446 2.41024C39.2395 0.805228 37.1177 0 35.0012 0C32.8848 0 30.7629 0.805228 29.1579 2.41024L20.6758 10.8923L25.2351 15.4517H35.4582C35.6051 14.7825 35.937 14.1405 36.4593 13.6181C37.1884 12.8891 38.146 12.5246 39.0981 12.5246C40.0557 12.5246 41.0132 12.8891 41.7368 13.6181C43.195 15.0763 43.195 17.443 41.7368 18.9011C41.2581 19.3799 40.6868 19.6954 40.0774 19.8587C40.0774 21.0121 40.0774 22.1655 40.0774 23.319C40.7357 23.4713 41.356 23.7977 41.8674 24.3092C42.27 24.7063 42.5529 25.1688 42.7325 25.6639Z" fill="white"/>
<path d="M8.97257 46.4315L5.78974 43.2487L6.70922 42.3292C7.30226 42.6121 7.94427 42.759 8.59171 42.759C9.17931 42.759 9.75603 42.6393 10.311 42.3999L11.6603 43.7493L8.97257 46.4315ZM8.97257 47.4054L12.6287 43.7493L10.4416 41.5621C9.89205 41.8776 9.26636 42.0735 8.59171 42.0735C7.85177 42.0735 7.16624 41.8504 6.58953 41.4805L4.82129 43.2487L8.97257 47.4054Z" fill="white"/>
<path d="M35.0018 69.3143C32.9724 69.3143 31.0682 68.5309 29.6482 67.1054L11.4108 48.8681L14.8711 45.4078H28.8157C29.0334 45.8648 29.3163 46.2728 29.6754 46.6265C30.1433 47.0944 30.7091 47.448 31.3293 47.6657V49.9508C30.7635 50.1738 30.2521 50.5057 29.8223 50.9355C28.0975 52.6603 28.0975 55.4677 29.8223 57.1924C30.6547 58.0248 31.7646 58.4873 32.9507 58.4873C34.1313 58.4873 35.2467 58.0303 36.0791 57.1924C36.5416 56.7299 36.8898 56.175 37.1074 55.5602H44.1531L48.0215 59.4285L40.3555 67.0945C38.9355 68.5309 37.0312 69.3143 35.0018 69.3143ZM35.0018 69.9999C37.1183 69.9999 39.2402 69.1946 40.8452 67.5896L49.0335 59.4013L49.0008 59.434L44.4415 54.8746H36.5905C36.4436 55.5438 36.1117 56.1858 35.5894 56.7082C34.8604 57.4372 33.9028 57.8017 32.9507 57.8017C31.9931 57.8017 31.0355 57.4372 30.3119 56.7082C28.8538 55.25 28.8538 52.8833 30.3119 51.4252C30.8016 50.9356 31.3946 50.6145 32.0203 50.4568V47.1488C31.3402 47.0019 30.6928 46.67 30.165 46.1423C29.7515 45.7288 29.4577 45.2391 29.2782 44.7168H14.5882L10.4424 48.8626L29.1639 67.5842C30.7689 69.2001 32.8854 69.9999 35.0018 69.9999Z" fill="white"/>
<path d="M2.4116 40.8438L3.49431 41.9265L5.32239 40.0984C5.03947 39.5706 4.85993 38.9776 4.85993 38.341C4.85993 36.279 6.53568 34.6087 8.59227 34.6087C9.15267 34.6087 9.68041 34.7393 10.1538 34.9623L19.7458 25.3703C19.3867 24.799 19.1745 24.1298 19.1745 23.4062C19.1745 21.3496 20.8502 19.6739 22.9068 19.6739C24.9689 19.6739 26.6446 21.3496 26.6392 23.4062C26.6392 25.4628 24.9634 27.1386 22.9068 27.1386C22.3247 27.1386 21.7752 26.9917 21.28 26.7523L11.8839 36.1538C11.8458 36.2137 11.8023 36.2681 11.7479 36.3225L11.737 36.3334C12.107 36.9155 12.33 37.6011 12.33 38.341C12.33 39.0429 12.1233 39.6903 11.786 40.2507L14.1908 42.6555H29.1691C29.3214 41.9972 29.6479 41.3715 30.1593 40.8601C31.6174 39.402 33.9841 39.402 35.4423 40.8601C36.9004 42.3182 36.9004 44.6849 35.4423 46.143C34.9961 46.5892 34.4575 46.8993 33.8917 47.0734V50.4575C34.5119 50.6207 35.1049 50.9417 35.5892 51.426C35.9918 51.8286 36.2801 52.3074 36.4597 52.8079H45.2954L50.4587 57.9712L50.4206 58.0092L67.5915 40.8383C70.807 37.6228 70.807 32.3671 67.5915 29.1516L67.1944 28.7544L65.0398 30.909C65.388 31.4748 65.6002 32.1386 65.6002 32.8513C65.6002 34.9134 63.9245 36.5837 61.8679 36.5837C61.2803 36.5837 60.7362 36.4368 60.2411 36.1974L50.6817 45.7622C51.0626 46.3443 51.2857 47.0407 51.2857 47.7861C51.2857 49.8482 49.6099 51.5185 47.5533 51.5185C46.525 51.5185 45.5892 51.0995 44.9146 50.4249C44.2399 49.7502 43.821 48.8144 43.821 47.7861C43.821 45.7241 45.4967 44.0538 47.5533 44.0538C48.1137 44.0538 48.6415 44.1844 49.1148 44.4074L58.7068 34.8154C58.3477 34.2442 58.1355 33.5749 58.1355 32.8513C58.1355 32.1984 58.3205 31.5945 58.6143 31.0613L55.3064 27.7534C55.2955 27.7425 55.29 27.737 55.2846 27.7262H42.8852C42.7383 28.4062 42.4064 29.0591 41.8786 29.5869C40.4205 31.045 38.0538 31.045 36.5957 29.5869C35.1376 28.1288 35.1376 25.762 36.5957 24.3039C37.0582 23.8415 37.6186 23.5259 38.2116 23.3572V19.8752C37.5696 19.7174 36.9657 19.3964 36.4651 18.8959C36.0625 18.4932 35.7741 18.0145 35.5946 17.5085H24.3867L19.2235 12.3452L2.4116 29.1571C-0.803868 32.3725 -0.803868 37.6283 2.4116 40.8438ZM27.3029 32.5793C27.7001 32.9765 27.983 33.4389 28.1626 33.934H41.71C41.8623 33.2757 42.1888 32.65 42.7002 32.1386C44.1583 30.6805 46.525 30.6805 47.9831 32.1386C49.4413 33.5967 49.4413 35.9634 47.9831 37.4215C46.525 38.8796 44.1583 38.8796 42.7002 37.4215C42.2867 37.008 41.9929 36.5184 41.8134 35.9961H28.304C28.1571 36.6762 27.8252 37.329 27.2975 37.8568C25.8394 39.3149 23.4727 39.3149 22.0145 37.8568C20.5564 36.3987 20.5564 34.032 22.0145 32.5738C23.4781 31.1212 25.8448 31.1212 27.3029 32.5793Z" fill="white"/>
<path d="M93.2666 12.5132H97.3852V18.6394H102.032V12.5132H106.15V28.9605H102.032V22.4316H97.3852V28.9605H93.2666V12.5132Z" fill="white"/>
<path d="M108.919 20.6575C108.919 15.244 111.841 12.2026 116.15 12.2026C120.459 12.2026 123.375 15.2658 123.375 20.6575C123.375 26.0711 120.453 29.2593 116.15 29.2593C111.841 29.2648 108.919 26.0765 108.919 20.6575ZM119.164 20.6575C119.164 17.6706 118.016 15.9513 116.15 15.9513C114.283 15.9513 113.136 17.6706 113.136 20.6575C113.136 23.6445 114.283 25.5161 116.15 25.5161C118.016 25.5161 119.164 23.6445 119.164 20.6575Z" fill="white"/>
<path d="M126.156 12.5132H130.367L133.811 19.8527L135.296 23.547H135.394C135.204 21.7733 134.866 19.2978 134.866 17.2684V12.5132H138.789V28.9605H134.578L131.134 21.5992L129.649 17.9267H129.551C129.741 19.7983 130.079 22.1759 130.079 24.2053V28.9605H126.15V12.5132H126.156Z" fill="white"/>
<path d="M141.574 20.8642C141.574 15.3473 145.165 12.208 149.327 12.208C151.623 12.208 153.299 13.22 154.403 14.3843L152.249 17.17C151.482 16.4627 150.715 15.9567 149.474 15.9567C147.369 15.9567 145.785 17.7303 145.785 20.7119C145.785 23.7968 147.08 25.5215 149.855 25.5215C150.285 25.5215 150.764 25.4181 151.052 25.2168V22.9371H148.756V19.3952H154.692V27.2407C153.593 28.3561 151.629 29.2647 149.425 29.2647C145.067 29.2647 141.574 26.479 141.574 20.8642Z" fill="white"/>
<path d="M162.5 12.5132H166.619V18.6394H166.717L170.645 12.5132H175.144L170.503 19.1944L176.058 28.9605H171.559L168.115 22.6329L166.63 24.8582V28.9605H162.511V12.5132H162.5Z" fill="white"/>
<path d="M176.145 20.6575C176.145 15.244 179.066 12.2026 183.37 12.2026C187.679 12.2026 190.601 15.2658 190.601 20.6575C190.601 26.0711 187.679 29.2593 183.37 29.2593C179.061 29.2648 176.145 26.0765 176.145 20.6575ZM186.384 20.6575C186.384 17.6706 185.236 15.9513 183.37 15.9513C181.504 15.9513 180.356 17.6706 180.356 20.6575C180.356 23.6445 181.504 25.5161 183.37 25.5161C185.236 25.5161 186.384 23.6445 186.384 20.6575Z" fill="white"/>
<path d="M193.381 12.5132H197.592L201.036 19.8527L202.521 23.547H202.614C202.423 21.7733 202.086 19.2978 202.086 17.2684V12.5132H206.009V28.9605H201.798L198.354 21.5992L196.868 17.9267H196.776C196.966 19.7983 197.304 22.1759 197.304 24.2053V28.9605H193.381V12.5132Z" fill="white"/>
<path d="M208.795 20.8642C208.795 15.3473 212.386 12.208 216.548 12.208C218.844 12.208 220.52 13.22 221.624 14.3843L219.47 17.17C218.702 16.4627 217.935 15.9567 216.695 15.9567C214.589 15.9567 213.006 17.7303 213.006 20.7119C213.006 23.7968 214.301 25.5215 217.076 25.5215C217.506 25.5215 217.984 25.4181 218.273 25.2168V22.9371H215.977V19.3952H221.913V27.2407C220.813 28.3561 218.849 29.2647 216.646 29.2647C212.288 29.2647 208.795 26.479 208.795 20.8642Z" fill="white"/>
<path d="M229.045 20.8642C229.045 15.3473 232.636 12.208 236.564 12.208C238.621 12.208 240.296 13.22 241.401 14.3843L239.246 17.17C238.479 16.4627 237.712 15.9567 236.662 15.9567C234.845 15.9567 233.261 17.7303 233.261 20.7119C233.261 23.7968 234.605 25.5215 236.613 25.5215C237.81 25.5215 238.767 24.8631 239.437 24.1069L241.591 26.8381C240.275 28.4595 238.479 29.2701 236.472 29.2701C232.494 29.2647 229.045 26.479 229.045 20.8642Z" fill="white"/>
<path d="M256.722 28.9611L253.338 22.5682C254.85 21.7031 255.862 20.1743 255.862 17.8239C255.862 13.7216 252.989 12.5083 249.638 12.5083H243.751V28.9611H247.87V23.4442H249.453L252.13 28.9611H256.722ZM247.864 15.9523H249.349C250.976 15.9523 251.841 16.4093 251.841 17.8239C251.841 19.2385 250.982 20.0002 249.349 20.0002H247.864V15.9523Z" fill="white"/>
<path d="M258.158 20.6575C258.158 15.244 261.08 12.2026 265.383 12.2026C269.693 12.2026 272.614 15.2658 272.614 20.6575C272.614 26.0711 269.693 29.2593 265.383 29.2593C261.08 29.2648 258.158 26.0765 258.158 20.6575ZM268.403 20.6575C268.403 17.6706 267.255 15.9513 265.389 15.9513C263.523 15.9513 262.375 17.6706 262.375 20.6575C262.375 23.6445 263.523 25.5161 265.389 25.5161C267.255 25.5161 268.403 23.6445 268.403 20.6575Z" fill="white"/>
<path d="M274.438 26.9089L276.782 23.922C277.881 24.8578 279.274 25.5161 280.422 25.5161C281.668 25.5161 282.191 25.0863 282.191 24.3518C282.191 23.5683 281.402 23.3126 280.085 22.7577L278.148 21.898C276.472 21.1907 275.014 19.6945 275.014 17.3169C275.014 14.5095 277.408 12.2026 280.809 12.2026C282.577 12.2026 284.541 12.9099 285.977 14.4061L283.921 17.1374C282.865 16.3539 281.957 15.9459 280.809 15.9459C279.802 15.9459 279.182 16.3267 279.182 17.0612C279.182 17.8447 280.069 18.1221 281.478 18.7043L283.366 19.4878C285.303 20.2984 286.407 21.713 286.407 23.9927C286.407 26.7783 284.204 29.2539 280.33 29.2539C278.36 29.2648 276.113 28.5031 274.438 26.9089Z" fill="white"/>
<path d="M287.463 26.9089L289.808 23.922C290.907 24.8578 292.3 25.5161 293.448 25.5161C294.694 25.5161 295.221 25.0863 295.221 24.3518C295.221 23.5683 294.432 23.3126 293.116 22.7577L291.179 21.898C289.503 21.1907 288.045 19.6945 288.045 17.3169C288.045 14.5095 290.439 12.2026 293.839 12.2026C295.613 12.2026 297.572 12.9099 299.008 14.4061L296.952 17.1374C295.901 16.3539 294.987 15.9459 293.839 15.9459C292.833 15.9459 292.213 16.3267 292.213 17.0612C292.213 17.8447 293.099 18.1221 294.509 18.7043L296.397 19.4878C298.333 20.2984 299.438 21.713 299.438 23.9927C299.438 26.7783 297.234 29.2539 293.361 29.2539C291.386 29.2648 289.139 28.5031 287.463 26.9089Z" fill="white"/>
<path d="M92.4609 48.5747C92.4609 44.3527 94.6916 41.8608 97.9071 41.8608C101.128 41.8608 103.353 44.3636 103.353 48.5747C103.353 52.7967 101.123 55.3919 97.9071 55.3919C94.6916 55.3919 92.4609 52.7967 92.4609 48.5747ZM101.106 48.5747C101.106 45.6476 99.8549 43.8739 97.9125 43.8739C95.9702 43.8739 94.7188 45.6476 94.7188 48.5747C94.7188 51.5018 95.9702 53.3789 97.9125 53.3789C99.8494 53.3789 101.106 51.5018 101.106 48.5747Z" fill="white"/>
<path d="M105.377 48.673C105.377 44.4021 107.907 41.8667 111.035 41.8667C112.58 41.8667 113.816 42.6502 114.594 43.5207L113.424 45.0114C112.787 44.3422 112.047 43.8798 111.084 43.8798C109.077 43.8798 107.629 45.6752 107.629 48.6023C107.629 51.5784 108.957 53.3847 111.03 53.3847C112.123 53.3847 112.972 52.8515 113.669 52.0463L114.838 53.499C113.837 54.7286 112.548 55.3978 110.948 55.3978C107.842 55.3923 105.377 52.9875 105.377 48.673Z" fill="white"/>
<path d="M117.091 42.1001H124.523V44.0479H119.279V47.3939H123.718V49.3417H119.279V53.2046H124.708V55.1524H117.086V42.1001H117.091Z" fill="white"/>
<path d="M129.849 42.1001H132.417L136.444 55.147H134.126L132.243 48.2046C131.852 46.8226 131.487 45.3373 131.123 43.901H131.046C130.709 45.3482 130.344 46.8226 129.953 48.2046L128.059 55.147H125.823L129.849 42.1001ZM128.206 49.7987H134.022V51.6159H128.206V49.7987Z" fill="white"/>
<path d="M138.044 42.1001H140.296L144.132 49.4342L145.411 52.2199H145.487C145.378 50.8706 145.209 49.2166 145.209 47.7639V42.1001H147.293V55.147H145.041L141.205 47.802L139.926 45.0272H139.85C139.959 46.4092 140.133 47.9815 140.133 49.4342V55.147H138.049V42.1001H138.044Z" fill="white"/>
<path d="M157.075 44.0479H153.512V42.1001H162.832V44.0479H159.268V55.147H157.075V44.0479Z" fill="white"/>
<path d="M165.078 42.1001H172.51V44.0479H167.271V47.3939H171.71V49.3417H167.271V53.2046H172.701V55.1524H165.078V42.1001Z" fill="white"/>
<path d="M174.774 48.673C174.774 44.4021 177.304 41.8667 180.433 41.8667C181.978 41.8667 183.213 42.6502 183.991 43.5207L182.821 45.0114C182.185 44.3422 181.445 43.8798 180.482 43.8798C178.474 43.8798 177.027 45.6752 177.027 48.6023C177.027 51.5784 178.354 53.3847 180.427 53.3847C181.521 53.3847 182.37 52.8515 183.061 52.0463L184.23 53.499C183.229 54.7286 181.94 55.3978 180.34 55.3978C177.239 55.3923 174.774 52.9875 174.774 48.673Z" fill="white"/>
<path d="M186.487 42.1001H188.68V47.345H193.675V42.1001H195.867V55.147H193.675V49.3635H188.68V55.147H186.487V42.1001Z" fill="white"/>
<path d="M199.191 42.1001H201.444L205.28 49.4342L206.558 52.2199H206.634C206.526 50.8706 206.357 49.2166 206.357 47.7639V42.1001H208.441V55.147H206.188L202.352 47.802L201.079 45.0272H201.003C201.107 46.4092 201.281 47.9815 201.281 49.4342V55.147H199.197V42.1001H199.191Z" fill="white"/>
<path d="M211.118 48.5747C211.118 44.3527 213.349 41.8608 216.564 41.8608C219.785 41.8608 222.01 44.3636 222.01 48.5747C222.01 52.7967 219.78 55.3919 216.564 55.3919C213.343 55.3919 211.118 52.7967 211.118 48.5747ZM219.758 48.5747C219.758 45.6476 218.507 43.8739 216.564 43.8739C214.622 43.8739 213.371 45.6476 213.371 48.5747C213.371 51.5018 214.627 53.3789 216.564 53.3789C218.507 53.3789 219.758 51.5018 219.758 48.5747Z" fill="white"/>
<path d="M224.676 42.1001H226.868V53.1992H231.999V55.147H224.681V42.1001H224.676Z" fill="white"/>
<path d="M233.109 48.5747C233.109 44.3527 235.34 41.8608 238.556 41.8608C241.776 41.8608 244.002 44.3636 244.002 48.5747C244.002 52.7967 241.771 55.3919 238.556 55.3919C235.34 55.3919 233.109 52.7967 233.109 48.5747ZM241.749 48.5747C241.749 45.6476 240.498 43.8739 238.556 43.8739C236.613 43.8739 235.362 45.6476 235.362 48.5747C235.362 51.5018 236.619 53.3789 238.556 53.3789C240.498 53.3789 241.749 51.5018 241.749 48.5747Z" fill="white"/>
<path d="M246.025 48.673C246.025 44.4021 248.588 41.8667 251.874 41.8667C253.626 41.8667 254.828 42.6828 255.607 43.5207L254.437 45.0114C253.817 44.3749 253.093 43.8798 251.945 43.8798C249.752 43.8798 248.283 45.6752 248.283 48.6023C248.283 51.5784 249.589 53.3847 252.07 53.3847C252.756 53.3847 253.441 53.178 253.833 52.808V49.9897H251.504V48.0909H255.797V53.8472C254.975 54.7231 253.544 55.3978 251.852 55.3978C248.506 55.3923 246.025 52.9875 246.025 48.673Z" fill="white"/>
<path d="M260.78 50.2992L257.064 42.1055H259.404L260.748 45.4406C261.112 46.4091 261.461 47.3177 261.847 48.3079H261.923C262.315 47.3122 262.701 46.4091 263.06 45.4406L264.404 42.1055H266.684L262.968 50.2992V55.1523H260.775V50.2992H260.78Z" fill="white"/>
<path d="M271.988 42.1001H274.181V53.1992H279.312V55.147H271.994V42.1001H271.988Z" fill="white"/>
<path d="M281.885 44.0479H278.321V42.1001H287.641V44.0479H284.078V55.147H281.885V44.0479Z" fill="white"/>
<path d="M289.883 42.1001H293.175C296.962 42.1001 299.192 44.2546 299.192 48.5746C299.192 52.8945 296.956 55.1524 293.284 55.1524H289.878V42.1001H289.883ZM293.034 53.2753C295.52 53.2753 296.945 51.7846 296.945 48.5746C296.945 45.3645 295.52 43.9771 293.034 43.9771H292.076V53.2753H293.034Z" fill="white"/>
<path d="M300.308 35.0229H81.0354V12.21H80.0996V55.1536H81.0354V35.9587H300.308V35.0229Z" fill="#F8CF0C"/>
</g>
<defs>
<clipPath id="clip0_2152_3633">
<rect width="300.308" height="70" fill="white"/>
</clipPath>
</defs>
</svg>
