<svg width="224" height="52" viewBox="0 0 224 52" fill="none" xmlns="http://www.w3.org/2000/svg">
<g clip-path="url(#clip0_2152_3712)">
<path d="M30.0309 19.1008C29.5459 18.6158 28.7618 18.6158 28.2768 19.1008C27.7918 19.5858 27.7918 20.3699 28.2768 20.8549C28.7618 21.3399 29.5459 21.3399 30.0309 20.8549C30.5159 20.3699 30.5159 19.5858 30.0309 19.1008Z" fill="#E1B413"/>
<path d="M32.8198 26.6708C33.3048 27.1558 34.0889 27.1558 34.5739 26.6708C35.0589 26.1858 35.0589 25.4017 34.5739 24.9167C34.0889 24.4317 33.3048 24.4317 32.8198 24.9167C32.3348 25.4017 32.3348 26.1899 32.8198 26.6708Z" fill="#E1B413"/>
<path d="M7.27214 27.56C7.04581 27.3337 6.73864 27.1963 6.39509 27.1963C5.71205 27.1963 5.1543 27.754 5.1543 28.4371C5.1543 29.1201 5.70801 29.6779 6.39509 29.6779C7.07814 29.6779 7.63589 29.1201 7.63589 28.4371C7.63589 28.0935 7.49443 27.7864 7.27214 27.56Z" fill="#E1B413"/>
<path d="M45.9713 25.6042C46.6543 25.6042 47.2121 25.0464 47.2121 24.3634C47.2121 24.0198 47.0706 23.7126 46.8483 23.4863C46.622 23.26 46.3148 23.1226 45.9713 23.1226C45.2882 23.1226 44.7305 23.6803 44.7305 24.3634C44.7305 25.0504 45.2882 25.6042 45.9713 25.6042Z" fill="#E1B413"/>
<path d="M17.0289 18.5836C17.7119 18.5836 18.2697 18.0259 18.2697 17.3428C18.2697 16.9993 18.1282 16.6921 17.9059 16.4658C17.6796 16.2395 17.3724 16.1021 17.0289 16.1021C16.3458 16.1021 15.7881 16.6598 15.7881 17.3428C15.7921 18.0259 16.3458 18.5836 17.0289 18.5836Z" fill="#E1B413"/>
<path d="M35.3336 34.2212C34.6505 34.2212 34.0928 34.7789 34.0928 35.462C34.0928 36.145 34.6505 36.7028 35.3336 36.7028C36.0166 36.7028 36.5744 36.145 36.5744 35.462C36.5744 35.1184 36.4329 34.8113 36.2106 34.5849C35.9843 34.3586 35.6771 34.2212 35.3336 34.2212Z" fill="#E1B413"/>
<path d="M25.2536 31.396C24.7686 30.911 23.9845 30.911 23.4995 31.396C23.0145 31.881 23.0145 32.6651 23.4995 33.1501C23.9845 33.6351 24.7686 33.6351 25.2536 33.1501C25.7386 32.6691 25.7386 31.881 25.2536 31.396Z" fill="#E1B413"/>
<path d="M19.2067 26.9945C19.6917 26.5095 19.6917 25.7255 19.2067 25.2405C18.7217 24.7555 17.9376 24.7555 17.4526 25.2405C16.9676 25.7255 16.9676 26.5095 17.4526 26.9945C17.9376 27.4796 18.7258 27.4796 19.2067 26.9945Z" fill="#E1B413"/>
<path d="M25.3669 39.2446C24.8819 38.7596 24.0978 38.7596 23.6128 39.2446C23.1278 39.7296 23.1278 40.5137 23.6128 40.9987C24.0978 41.4837 24.8819 41.4837 25.3669 40.9987C25.8478 40.5137 25.8478 39.7296 25.3669 39.2446Z" fill="#E1B413"/>
<path d="M28.1841 12.9133C28.6691 13.3983 29.4532 13.3983 29.9382 12.9133C30.4232 12.4283 30.4232 11.6442 29.9382 11.1592C29.4532 10.6742 28.6691 10.6742 28.1841 11.1592C27.6991 11.6442 27.6991 12.4283 28.1841 12.9133Z" fill="#E1B413"/>
<path d="M44.5844 21.4289L43.6629 20.5074L45.999 18.1713L48.2058 20.3781L47.2034 21.3804C46.8033 21.2107 46.383 21.1218 45.9545 21.1218C45.4857 21.1218 45.0169 21.2268 44.5844 21.4289ZM44.4915 22.0635C44.9199 21.7967 45.417 21.635 45.9586 21.635C46.4517 21.635 46.9084 21.7765 47.3085 22.0028L48.9292 20.3821L45.999 17.4519L42.9395 20.5115L44.4915 22.0635Z" fill="black"/>
<path d="M32.0798 18.5554C31.9222 18.2361 31.7161 17.9491 31.4655 17.6985C31.13 17.3631 30.7299 17.1084 30.2853 16.9427V16.4658V15.1199C30.6895 14.9542 31.0613 14.7117 31.3685 14.4046C32.6497 13.1233 32.6497 11.0378 31.3685 9.75663C30.7501 9.13825 29.9256 8.7947 29.0445 8.7947C28.1675 8.7947 27.3389 9.13421 26.7205 9.75663C26.377 10.1002 26.1183 10.5124 25.9567 10.9691H18.9565L16.0828 8.09549L22.0241 2.15422C23.083 1.0953 24.4936 0.513294 26.0011 0.513294C27.5087 0.513294 28.9233 1.0953 29.9781 2.15422L44.1927 16.3648L42.0022 18.5554H32.0798ZM31.7444 19.0646H42.2164L44.9202 16.3607L30.3419 1.79047C29.1496 0.598169 27.5733 0 26.0011 0C24.4289 0 22.8527 0.598169 21.6604 1.79047L15.3594 8.09145L18.7463 11.4784H26.3406C26.4498 10.9813 26.6963 10.5043 27.0843 10.1163C27.6259 9.57475 28.3372 9.30396 29.0445 9.30396C29.7559 9.30396 30.4672 9.57475 31.0047 10.1163C32.0879 11.1995 32.0879 12.9576 31.0047 14.0408C30.6491 14.3965 30.2247 14.6309 29.772 14.7521C29.772 15.609 29.772 16.4658 29.772 17.3227C30.2611 17.4358 30.7218 17.6783 31.1017 18.0582C31.4008 18.3533 31.611 18.6968 31.7444 19.0646Z" fill="black"/>
<path d="M6.66584 34.4917L4.30145 32.1273L4.9845 31.4442C5.42504 31.6544 5.90196 31.7635 6.38292 31.7635C6.81942 31.7635 7.24784 31.6746 7.66009 31.4968L8.66243 32.4991L6.66584 34.4917ZM6.66584 35.2151L9.38185 32.4991L7.75709 30.8743C7.34888 31.1088 6.88409 31.2543 6.38292 31.2543C5.83325 31.2543 5.324 31.0886 4.89558 30.8137L3.58203 32.1273L6.66584 35.2151Z" fill="black"/>
<path d="M26.001 51.4907C24.4934 51.4907 23.0789 50.9087 22.024 49.8498L8.47626 36.3021L11.0468 33.7316H21.4056C21.5673 34.0711 21.7774 34.3742 22.0442 34.6369C22.3918 34.9845 22.8121 35.2472 23.2729 35.4089V37.1064C22.8525 37.2721 22.4726 37.5186 22.1533 37.8379C20.8721 39.1191 20.8721 41.2046 22.1533 42.4858C22.7717 43.1042 23.5962 43.4478 24.4773 43.4478C25.3543 43.4478 26.1829 43.1083 26.8013 42.4858C27.1448 42.1423 27.4035 41.73 27.5651 41.2733H32.7991L35.6727 44.147L29.978 49.8417C28.9231 50.9087 27.5085 51.4907 26.001 51.4907ZM26.001 52C27.5732 52 29.1495 51.4018 30.3418 50.2095L36.4245 44.1268L36.4003 44.151L33.0133 40.7641H27.1812C27.072 41.2612 26.8255 41.7381 26.4375 42.1261C25.8959 42.6677 25.1846 42.9385 24.4773 42.9385C23.7659 42.9385 23.0546 42.6677 22.5171 42.1261C21.4339 41.043 21.4339 39.2848 22.5171 38.2017C22.8808 37.8379 23.3214 37.5994 23.7862 37.4822V35.0249C23.2809 34.9158 22.8 34.6692 22.4079 34.2772C22.1008 33.97 21.8825 33.6063 21.7491 33.2183H10.8366L7.75684 36.298L21.6643 50.2055C22.8566 51.4058 24.4288 52 26.001 52Z" fill="black"/>
<path d="M1.79148 30.3412L2.59577 31.1455L3.95378 29.7875C3.74361 29.3955 3.61023 28.9549 3.61023 28.4821C3.61023 26.9503 4.85507 25.7095 6.38283 25.7095C6.79912 25.7095 7.19116 25.8065 7.54279 25.9722L14.6683 18.8467C14.4015 18.4223 14.2439 17.9252 14.2439 17.3876C14.2439 15.8599 15.4887 14.615 17.0165 14.615C18.5483 14.615 19.7931 15.8599 19.7891 17.3876C19.7891 18.9154 18.5443 20.1602 17.0165 20.1602C16.584 20.1602 16.1758 20.0511 15.808 19.8733L8.82805 26.8573C8.79976 26.9018 8.76742 26.9422 8.72701 26.9826L8.71892 26.9907C8.99376 27.4231 9.15946 27.9324 9.15946 28.4821C9.15946 29.0034 9.00588 29.4844 8.7553 29.9007L10.5417 31.6871H21.6685C21.7816 31.1981 22.0241 30.7333 22.4041 30.3534C23.4872 29.2702 25.2454 29.2702 26.3285 30.3534C27.4117 31.4365 27.4117 33.1947 26.3285 34.2778C25.9971 34.6093 25.597 34.8396 25.1767 34.969V37.4829C25.6374 37.6041 26.078 37.8426 26.4377 38.2023C26.7367 38.5014 26.951 38.8571 27.0843 39.2289H33.648L37.4836 43.0645L37.4553 43.0928L50.2108 30.3372C52.5995 27.9486 52.5995 24.0443 50.2108 21.6557L49.9158 21.3606L48.3153 22.9611C48.574 23.3815 48.7316 23.8745 48.7316 24.404C48.7316 25.9358 47.4867 27.1766 45.959 27.1766C45.5225 27.1766 45.1183 27.0675 44.7505 26.8896L37.6493 33.9949C37.9322 34.4274 38.0979 34.9447 38.0979 35.4984C38.0979 37.0302 36.8531 38.271 35.3253 38.271C34.5614 38.271 33.8663 37.9598 33.3651 37.4586C32.8639 36.9575 32.5527 36.2623 32.5527 35.4984C32.5527 33.9666 33.7976 32.7258 35.3253 32.7258C35.7416 32.7258 36.1337 32.8228 36.4853 32.9885L43.6108 25.8631C43.344 25.4387 43.1864 24.9416 43.1864 24.404C43.1864 23.919 43.3238 23.4704 43.5421 23.0743L41.0847 20.6169C41.0766 20.6089 41.0726 20.6048 41.0686 20.5967H31.8576C31.7484 21.1019 31.5019 21.587 31.1098 21.979C30.0267 23.0622 28.2685 23.0622 27.1854 21.979C26.1022 20.8958 26.1022 19.1377 27.1854 18.0545C27.5289 17.711 27.9452 17.4766 28.3858 17.3513V14.7646C27.9088 14.6474 27.4602 14.4089 27.0884 14.0371C26.7893 13.738 26.5751 13.3823 26.4417 13.0065H18.1158L14.2803 9.1709L1.79148 21.6597C-0.597159 24.0483 -0.597159 27.9526 1.79148 30.3412ZM20.2822 24.2019C20.5772 24.497 20.7874 24.8405 20.9208 25.2083H30.9846C31.0977 24.7193 31.3402 24.2545 31.7201 23.8745C32.8033 22.7914 34.5614 22.7914 35.6446 23.8745C36.7278 24.9577 36.7278 26.7158 35.6446 27.799C34.5614 28.8822 32.8033 28.8822 31.7201 27.799C31.413 27.4919 31.1947 27.1281 31.0613 26.7401H21.0258C20.9167 27.2453 20.6702 27.7303 20.2781 28.1224C19.195 29.2055 17.4368 29.2055 16.3537 28.1224C15.2705 27.0392 15.2705 25.2811 16.3537 24.1979C17.4409 23.1188 19.199 23.1188 20.2822 24.2019Z" fill="#00483C"/>
<path d="M69.2832 9.2959H72.3428V13.8468H75.7944V9.2959H78.8539V21.5139H75.7944V16.6639H72.3428V21.5139H69.2832V9.2959Z" fill="black"/>
<path d="M80.9111 15.346C80.9111 11.3245 83.0815 9.06519 86.2825 9.06519C89.4835 9.06519 91.6499 11.3407 91.6499 15.346C91.6499 19.3674 89.4795 21.7359 86.2825 21.7359C83.0815 21.7399 80.9111 19.3715 80.9111 15.346ZM88.5216 15.346C88.5216 13.1271 87.6688 11.8499 86.2825 11.8499C84.8962 11.8499 84.0434 13.1271 84.0434 15.346C84.0434 17.5648 84.8962 18.9552 86.2825 18.9552C87.6688 18.9552 88.5216 17.5648 88.5216 15.346Z" fill="black"/>
<path d="M93.715 9.2959H96.8432L99.4016 14.7481L100.505 17.4924H100.578C100.436 16.1748 100.186 14.3359 100.186 12.8283V9.2959H103.1V21.5139H99.9715L97.4131 16.0455L96.3097 13.3174H96.237C96.3784 14.7077 96.629 16.4739 96.629 17.9815V21.5139H93.7109V9.2959H93.715Z" fill="black"/>
<path d="M105.169 15.4997C105.169 11.4014 107.836 9.06934 110.928 9.06934C112.634 9.06934 113.879 9.82109 114.699 10.686L113.099 12.7554C112.529 12.2299 111.959 11.8541 111.037 11.8541C109.473 11.8541 108.297 13.1716 108.297 15.3865C108.297 17.6781 109.259 18.9593 111.32 18.9593C111.64 18.9593 111.995 18.8825 112.21 18.733V17.0395H110.504V14.4084H114.913V20.2365C114.097 21.0651 112.638 21.74 111.001 21.74C107.764 21.74 105.169 19.6707 105.169 15.4997Z" fill="black"/>
<path d="M120.714 9.2959H123.773V13.8468H123.846L126.764 9.2959H130.107L126.659 14.2591L130.786 21.5139H127.443L124.885 16.8134L123.782 18.4665V21.5139H120.722V9.2959H120.714Z" fill="black"/>
<path d="M130.85 15.346C130.85 11.3245 133.02 9.06519 136.217 9.06519C139.418 9.06519 141.588 11.3407 141.588 15.346C141.588 19.3674 139.418 21.7359 136.217 21.7359C133.016 21.7399 130.85 19.3715 130.85 15.346ZM138.456 15.346C138.456 13.1271 137.603 11.8499 136.217 11.8499C134.831 11.8499 133.978 13.1271 133.978 15.346C133.978 17.5648 134.831 18.9552 136.217 18.9552C137.603 18.9552 138.456 17.5648 138.456 15.346Z" fill="black"/>
<path d="M143.654 9.2959H146.783L149.341 14.7481L150.444 17.4924H150.513C150.372 16.1748 150.121 14.3359 150.121 12.8283V9.2959H153.035V21.5139H149.907L147.348 16.0455L146.245 13.3174H146.176C146.318 14.7077 146.568 16.4739 146.568 17.9815V21.5139H143.654V9.2959Z" fill="black"/>
<path d="M155.104 15.4997C155.104 11.4014 157.772 9.06934 160.864 9.06934C162.569 9.06934 163.814 9.82109 164.635 10.686L163.034 12.7554C162.464 12.2299 161.895 11.8541 160.973 11.8541C159.409 11.8541 158.233 13.1716 158.233 15.3865C158.233 17.6781 159.195 18.9593 161.256 18.9593C161.575 18.9593 161.931 18.8825 162.145 18.733V17.0395H160.44V14.4084H164.849V20.2365C164.033 21.0651 162.574 21.74 160.937 21.74C157.699 21.74 155.104 19.6707 155.104 15.4997Z" fill="black"/>
<path d="M170.147 15.4997C170.147 11.4014 172.815 9.06934 175.733 9.06934C177.261 9.06934 178.506 9.82109 179.326 10.686L177.726 12.7554C177.156 12.2299 176.586 11.8541 175.806 11.8541C174.456 11.8541 173.28 13.1716 173.28 15.3865C173.28 17.6781 174.278 18.9593 175.769 18.9593C176.659 18.9593 177.37 18.4703 177.867 17.9085L179.468 19.9374C178.489 21.1418 177.156 21.7441 175.664 21.7441C172.71 21.74 170.147 19.6707 170.147 15.4997Z" fill="black"/>
<path d="M190.708 21.514L188.194 16.7651C189.317 16.1224 190.069 14.9867 190.069 13.2407C190.069 10.1933 187.935 9.29199 185.445 9.29199H181.072V21.514H184.132V17.4158H185.308L187.296 21.514H190.708ZM184.128 11.8504H185.231C186.44 11.8504 187.082 12.1899 187.082 13.2407C187.082 14.2916 186.444 14.8574 185.231 14.8574H184.128V11.8504Z" fill="black"/>
<path d="M191.774 15.346C191.774 11.3245 193.945 9.06519 197.142 9.06519C200.343 9.06519 202.513 11.3407 202.513 15.346C202.513 19.3674 200.343 21.7359 197.142 21.7359C193.945 21.7399 191.774 19.3715 191.774 15.346ZM199.385 15.346C199.385 13.1271 198.532 11.8499 197.146 11.8499C195.76 11.8499 194.907 13.1271 194.907 15.346C194.907 17.5648 195.76 18.9552 197.146 18.9552C198.532 18.9552 199.385 17.5648 199.385 15.346Z" fill="black"/>
<path d="M203.867 19.9899L205.609 17.771C206.426 18.4661 207.46 18.9552 208.313 18.9552C209.239 18.9552 209.627 18.6359 209.627 18.0903C209.627 17.5083 209.041 17.3183 208.062 16.9061L206.624 16.2675C205.379 15.742 204.296 14.6306 204.296 12.8644C204.296 10.7789 206.074 9.06519 208.6 9.06519C209.914 9.06519 211.373 9.59061 212.44 10.7021L210.912 12.731C210.128 12.149 209.453 11.8459 208.6 11.8459C207.852 11.8459 207.392 12.1288 207.392 12.6744C207.392 13.2564 208.05 13.4625 209.097 13.895L210.5 14.477C211.938 15.0792 212.759 16.13 212.759 17.8235C212.759 19.8929 211.122 21.7318 208.244 21.7318C206.781 21.7399 205.112 21.1741 203.867 19.9899Z" fill="black"/>
<path d="M213.543 19.9899L215.285 17.771C216.101 18.4661 217.136 18.9552 217.989 18.9552C218.914 18.9552 219.306 18.6359 219.306 18.0903C219.306 17.5083 218.72 17.3183 217.742 16.9061L216.303 16.2675C215.059 15.742 213.975 14.6306 213.975 12.8644C213.975 10.7789 215.754 9.06519 218.28 9.06519C219.597 9.06519 221.052 9.59061 222.119 10.7021L220.592 12.731C219.812 12.149 219.133 11.8459 218.28 11.8459C217.532 11.8459 217.071 12.1288 217.071 12.6744C217.071 13.2564 217.73 13.4625 218.777 13.895L220.179 14.477C221.618 15.0792 222.439 16.13 222.439 17.8235C222.439 19.8929 220.802 21.7318 217.924 21.7318C216.457 21.7399 214.788 21.1741 213.543 19.9899Z" fill="black"/>
<path d="M68.6846 36.0844C68.6846 32.948 70.3417 31.0969 72.7303 31.0969C75.123 31.0969 76.776 32.9561 76.776 36.0844C76.776 39.2207 75.1189 41.1486 72.7303 41.1486C70.3417 41.1486 68.6846 39.2207 68.6846 36.0844ZM75.1068 36.0844C75.1068 33.9099 74.1772 32.5923 72.7343 32.5923C71.2915 32.5923 70.3619 33.9099 70.3619 36.0844C70.3619 38.2588 71.2915 39.6532 72.7343 39.6532C74.1732 39.6532 75.1068 38.2588 75.1068 36.0844Z" fill="#00483C"/>
<path d="M78.2793 36.1575C78.2793 32.9847 80.1587 31.1013 82.4827 31.1013C83.6305 31.1013 84.5479 31.6833 85.1259 32.33L84.257 33.4374C83.7841 32.9403 83.2344 32.5967 82.519 32.5967C81.0276 32.5967 79.9526 33.9305 79.9526 36.1049C79.9526 38.3157 80.9387 39.6576 82.4786 39.6576C83.291 39.6576 83.9215 39.2615 84.4388 38.6633L85.3078 39.7424C84.5641 40.6559 83.6062 41.153 82.418 41.153C80.1102 41.1489 78.2793 39.3625 78.2793 36.1575Z" fill="#00483C"/>
<path d="M86.9816 31.2747H92.5025V32.7216H88.6063V35.2072H91.9044V36.6541H88.6063V39.5237H92.6399V40.9707H86.9775V31.2747H86.9816Z" fill="#00483C"/>
<path d="M96.4596 31.2747H98.3673L101.358 40.9666H99.6364L98.2379 35.8094C97.9469 34.7828 97.6761 33.6795 97.4054 32.6125H97.3488C97.0982 33.6875 96.8274 34.7828 96.5364 35.8094L95.1299 40.9666H93.4688L96.4596 31.2747ZM95.239 36.9936H99.5596V38.3436H95.239V36.9936Z" fill="#00483C"/>
<path d="M102.546 31.2747H104.219L107.069 36.7228L108.018 38.7922H108.075C107.994 37.7899 107.869 36.5612 107.869 35.482V31.2747H109.417V40.9666H107.743L104.894 35.5103L103.944 33.4491H103.888C103.969 34.4757 104.098 35.6437 104.098 36.7228V40.9666H102.55V31.2747H102.546Z" fill="#00483C"/>
<path d="M116.683 32.7216H114.036V31.2747H120.96V32.7216H118.312V40.9666H116.683V32.7216Z" fill="#00483C"/>
<path d="M122.629 31.2747H128.15V32.7216H124.258V35.2072H127.556V36.6541H124.258V39.5237H128.291V40.9707H122.629V31.2747Z" fill="#00483C"/>
<path d="M129.832 36.1575C129.832 32.9847 131.711 31.1013 134.035 31.1013C135.183 31.1013 136.101 31.6833 136.679 32.33L135.81 33.4374C135.337 32.9403 134.787 32.5967 134.072 32.5967C132.58 32.5967 131.505 33.9305 131.505 36.1049C131.505 38.3157 132.491 39.6576 134.031 39.6576C134.844 39.6576 135.474 39.2615 135.988 38.6633L136.856 39.7424C136.113 40.6559 135.155 41.153 133.967 41.153C131.663 41.1489 129.832 39.3625 129.832 36.1575Z" fill="#00483C"/>
<path d="M138.533 31.2747H140.162V35.1708H143.872V31.2747H145.501V40.9666H143.872V36.6703H140.162V40.9666H138.533V31.2747Z" fill="#00483C"/>
<path d="M147.971 31.2747H149.644L152.493 36.7228L153.443 38.7922H153.5C153.419 37.7899 153.294 36.5612 153.294 35.482V31.2747H154.842V40.9666H153.168L150.319 35.5103L149.373 33.4491H149.317C149.393 34.4757 149.523 35.6437 149.523 36.7228V40.9666H147.975V31.2747H147.971Z" fill="#00483C"/>
<path d="M156.83 36.0844C156.83 32.948 158.487 31.0969 160.876 31.0969C163.268 31.0969 164.922 32.9561 164.922 36.0844C164.922 39.2207 163.264 41.1486 160.876 41.1486C158.483 41.1486 156.83 39.2207 156.83 36.0844ZM163.248 36.0844C163.248 33.9099 162.319 32.5923 160.876 32.5923C159.433 32.5923 158.503 33.9099 158.503 36.0844C158.503 38.2588 159.437 39.6532 160.876 39.6532C162.319 39.6532 163.248 38.2588 163.248 36.0844Z" fill="#00483C"/>
<path d="M166.901 31.2747H168.53V39.5197H172.341V40.9666H166.905V31.2747H166.901Z" fill="#00483C"/>
<path d="M173.166 36.0844C173.166 32.948 174.823 31.0969 177.212 31.0969C179.604 31.0969 181.257 32.9561 181.257 36.0844C181.257 39.2207 179.6 41.1486 177.212 41.1486C174.823 41.1486 173.166 39.2207 173.166 36.0844ZM179.584 36.0844C179.584 33.9099 178.655 32.5923 177.212 32.5923C175.769 32.5923 174.839 33.9099 174.839 36.0844C174.839 38.2588 175.773 39.6532 177.212 39.6532C178.655 39.6532 179.584 38.2588 179.584 36.0844Z" fill="#00483C"/>
<path d="M182.761 36.1575C182.761 32.9847 184.664 31.1013 187.106 31.1013C188.407 31.1013 189.3 31.7076 189.878 32.33L189.009 33.4374C188.548 32.9645 188.011 32.5967 187.158 32.5967C185.529 32.5967 184.438 33.9305 184.438 36.1049C184.438 38.3157 185.408 39.6576 187.251 39.6576C187.76 39.6576 188.27 39.504 188.561 39.2291V37.1356H186.831V35.725H190.02V40.0011C189.409 40.6518 188.346 41.153 187.089 41.153C184.604 41.1489 182.761 39.3625 182.761 36.1575Z" fill="#00483C"/>
<path d="M193.722 37.3651L190.962 31.2783H192.7L193.698 33.7559C193.969 34.4753 194.228 35.1503 194.515 35.8858H194.571C194.862 35.1462 195.149 34.4753 195.416 33.7559L196.414 31.2783H198.108L195.347 37.3651V40.9703H193.718V37.3651H193.722Z" fill="#00483C"/>
<path d="M202.048 31.2747H203.677V39.5197H207.488V40.9666H202.052V31.2747H202.048Z" fill="#00483C"/>
<path d="M209.4 32.7216H206.753V31.2747H213.676V32.7216H211.029V40.9666H209.4V32.7216Z" fill="#00483C"/>
<path d="M215.341 31.2747H217.786C220.599 31.2747 222.256 32.8752 222.256 36.0843C222.256 39.2934 220.595 40.9707 217.867 40.9707H215.337V31.2747H215.341ZM217.681 39.5763C219.528 39.5763 220.587 38.4689 220.587 36.0843C220.587 33.6997 219.528 32.669 217.681 32.669H216.97V39.5763H217.681Z" fill="#00483C"/>
<path d="M223.085 26.0173H60.1971V9.07056H59.502V40.9716H60.1971V26.7125H223.085V26.0173Z" fill="#F8CF0C"/>
</g>
<defs>
<clipPath id="clip0_2152_3712">
<rect width="223.086" height="52" fill="white"/>
</clipPath>
</defs>
</svg>
